<?xml version="1.0" encoding="UTF-8" standalone="no"?>
<!DOCTYPE svg PUBLIC "-//W3C//DTD SVG 20010904//EN"
              "http://www.w3.org/TR/2001/REC-SVG-20010904/DTD/svg10.dtd">

  
<svg xmlns="http://www.w3.org/2000/svg"
     width="118.187mm" height="118.892mm"
     viewBox="0 0 670 674">
  
  <!-- Define the linear gradient -->
  <defs>
    <linearGradient id="gradient1" x1="0%" y1="0%" x2="75%" y2="100%">
      <stop offset="0%" style="stop-color:#f7f4cb;stop-opacity:1" />
      <stop offset="100%" style="stop-color:#b38049;stop-opacity:1" />
    </linearGradient>
  </defs>

  <!-- Set the background color -->
  <rect width="100%" height="100%" fill="none" />

  <!-- Apply the gradient to your path -->
  <path id="Selection"
        fill="url(#gradient1)" stroke="url(#gradient1)" stroke-width="1"
        d="M 352.00,161.00
           C 352.00,161.00 355.83,132.00 355.83,132.00
             355.83,132.00 359.38,87.00 359.38,87.00
             359.38,87.00 368.23,66.00 368.23,66.00
             368.23,66.00 379.63,42.59 379.63,42.59
             379.63,42.59 389.00,39.80 389.00,39.80
             389.00,39.80 408.00,35.58 408.00,35.58
             408.00,35.58 437.00,29.29 437.00,29.29
             437.00,29.29 491.00,26.00 491.00,26.00
             491.00,26.00 480.42,76.00 480.42,76.00
             480.42,76.00 476.32,95.00 476.32,95.00
             474.75,98.90 464.54,111.78 461.37,116.00
             458.85,119.36 452.72,128.12 449.83,130.30
             447.48,132.08 436.38,136.70 433.00,138.15
             423.10,142.40 413.85,147.66 403.00,148.84
             403.00,148.84 379.00,151.58 379.00,151.58
             375.56,152.04 371.09,151.84 368.21,153.85
             364.94,156.15 359.44,168.72 357.00,173.00
             357.00,173.00 464.00,151.20 464.00,151.20
             464.00,151.20 493.00,145.20 493.00,145.20
             496.25,144.55 503.02,142.73 506.00,143.62
             509.39,144.64 517.93,152.35 521.00,155.00
             521.00,155.00 550.00,179.73 550.00,179.73
             550.00,179.73 579.00,204.41 579.00,204.41
             582.43,207.29 592.10,215.01 594.30,218.09
             594.30,218.09 606.42,249.00 606.42,249.00
             606.42,249.00 620.87,289.00 620.87,289.00
             621.13,291.37 619.82,297.18 619.42,300.00
             619.42,300.00 617.28,318.00 617.28,318.00
             617.28,318.00 612.66,357.00 612.66,357.00
             612.66,357.00 604.42,378.00 604.42,378.00
             604.42,378.00 571.42,457.00 571.42,457.00
             571.42,457.00 554.39,497.00 554.39,497.00
             554.39,497.00 534.75,521.00 534.75,521.00
             534.75,521.00 507.83,552.68 507.83,552.68
             507.83,552.68 484.00,569.33 484.00,569.33
             484.00,569.33 453.00,589.69 453.00,589.69
             453.00,589.69 437.00,597.26 437.00,597.26
             437.00,597.26 403.00,613.36 403.00,613.36
             399.77,614.27 387.88,612.94 384.00,612.42
             384.00,612.42 348.00,609.09 348.00,609.09
             348.00,609.09 337.04,610.86 337.04,610.86
             337.04,610.86 325.00,610.86 325.00,610.86
             325.00,610.86 312.00,612.04 312.00,612.04
             307.99,612.22 304.01,613.45 300.00,612.61
             295.67,611.71 285.61,606.43 281.00,604.42
             281.00,604.42 249.00,589.55 249.00,589.55
             249.00,589.55 222.00,570.72 222.00,570.72
             222.00,570.72 204.00,557.70 204.00,557.70
             199.21,553.58 197.13,550.36 192.96,546.00
             174.07,526.25 176.07,529.54 160.00,507.00
             160.00,507.00 136.52,474.00 136.52,474.00
             136.52,474.00 127.70,454.00 127.70,454.00
             127.70,454.00 105.31,398.00 105.31,398.00
             105.31,398.00 92.52,362.00 92.52,362.00
             92.52,362.00 89.91,328.00 89.91,328.00
             89.91,328.00 87.91,299.00 87.91,299.00
             87.62,294.72 86.56,291.58 87.21,287.00
             87.21,287.00 100.00,250.00 100.00,250.00
             100.00,250.00 112.22,216.09 112.22,216.09
             114.68,212.05 123.05,206.02 127.00,202.75
             127.00,202.75 159.00,176.61 159.00,176.61
             159.00,176.61 186.00,154.58 186.00,154.58
             189.09,152.04 196.77,145.29 200.00,143.94
             203.93,142.29 208.96,144.14 213.00,145.00
             213.00,145.00 240.00,150.79 240.00,150.79
             240.00,150.79 305.00,164.21 305.00,164.21
             305.00,164.21 344.00,172.00 344.00,172.00
             334.64,152.80 309.69,119.72 294.54,104.80
             294.54,104.80 282.00,94.25 282.00,94.25
             282.00,94.25 258.00,74.59 258.00,74.59
             255.89,72.83 250.20,68.83 250.20,65.96
             250.20,63.36 254.21,59.76 256.00,58.04
             256.00,58.04 275.00,41.00 275.00,41.00
             275.00,41.00 320.49,92.00 320.49,92.00
             320.49,92.00 343.02,130.00 343.02,130.00
             343.02,130.00 352.00,161.00 352.00,161.00 Z
           M 477.00,33.00
           C 477.00,33.00 451.00,34.00 451.00,34.00
             451.00,34.00 444.02,35.60 444.02,35.60
             444.02,35.60 442.58,43.00 442.58,43.00
             442.58,43.00 442.00,64.00 442.00,64.00
             442.00,64.00 462.00,47.15 462.00,47.15
             462.00,47.15 477.00,33.00 477.00,33.00 Z
           M 437.00,36.00
           C 437.00,36.00 392.00,45.00 392.00,45.00
             394.63,48.53 402.80,51.74 407.00,53.58
             407.00,53.58 436.00,67.00 436.00,67.00
             436.00,67.00 436.00,52.00 436.00,52.00
             436.00,52.00 437.00,36.00 437.00,36.00 Z
           M 482.00,39.00
           C 482.00,39.00 481.00,39.00 481.00,39.00
             481.00,39.00 482.00,40.00 482.00,40.00
             482.00,40.00 482.00,39.00 482.00,39.00 Z
           M 481.00,40.00
           C 474.91,44.36 465.69,54.31 460.00,60.00
             455.37,64.63 449.83,69.02 447.00,75.00
             447.00,75.00 472.00,89.00 472.00,89.00
             472.00,89.00 481.00,40.00 481.00,40.00 Z
           M 274.00,51.00
           C 268.24,55.07 262.11,60.26 258.00,66.00
             258.00,66.00 289.00,91.00 289.00,91.00
             289.00,91.00 274.00,51.00 274.00,51.00 Z
           M 433.00,72.00
           C 433.00,72.00 386.00,51.00 386.00,51.00
             386.00,51.00 397.00,103.00 397.00,103.00
             397.00,103.00 414.00,89.15 414.00,89.15
             414.00,89.15 433.00,72.00 433.00,72.00 Z
           M 381.00,55.00
           C 381.00,55.00 369.70,78.00 369.70,78.00
             369.70,78.00 367.35,86.79 367.35,86.79
             367.35,86.79 374.00,92.34 374.00,92.34
             374.00,92.34 390.00,102.00 390.00,102.00
             390.00,102.00 381.00,55.00 381.00,55.00 Z
           M 285.00,61.00
           C 285.00,61.00 284.00,61.00 284.00,61.00
             284.00,61.00 285.00,62.00 285.00,62.00
             285.00,62.00 285.00,61.00 285.00,61.00 Z
           M 287.00,64.00
           C 285.71,69.11 293.37,84.45 295.60,90.00
             296.50,92.24 297.74,96.45 300.27,97.22
             302.63,97.93 309.41,94.90 312.00,94.00
             310.37,88.45 307.99,87.22 304.28,83.00
             304.28,83.00 287.00,64.00 287.00,64.00 Z
           M 439.00,81.00
           C 439.00,81.00 422.00,97.00 422.00,97.00
             422.00,97.00 406.00,114.00 406.00,114.00
             406.00,114.00 444.00,124.00 444.00,124.00
             444.00,124.00 439.00,81.00 439.00,81.00 Z
           M 446.00,81.00
           C 446.00,81.00 446.58,94.00 446.58,94.00
             446.58,94.00 450.00,119.00 450.00,119.00
             454.80,115.00 460.05,107.22 463.87,102.00
             465.30,100.04 467.99,96.97 466.84,94.38
             466.06,92.63 462.63,90.79 461.00,89.80
             461.00,89.80 446.00,81.00 446.00,81.00 Z
           M 290.00,91.00
           C 290.00,91.00 289.00,91.00 289.00,91.00
             289.00,91.00 290.00,92.00 290.00,92.00
             290.00,92.00 290.00,91.00 290.00,91.00 Z
           M 390.00,109.00
           C 390.00,109.00 365.00,94.00 365.00,94.00
             365.00,94.00 363.83,106.00 363.83,106.00
             363.83,106.00 362.00,134.00 362.00,134.00
             368.51,129.64 385.63,115.05 390.00,109.00 Z
           M 316.00,99.00
           C 316.00,99.00 303.00,104.00 303.00,104.00
             306.99,109.74 314.47,118.95 320.00,123.00
             320.00,123.00 316.00,99.00 316.00,99.00 Z
           M 391.00,102.00
           C 391.00,102.00 390.00,102.00 390.00,102.00
             390.00,102.00 391.00,103.00 391.00,103.00
             391.00,103.00 391.00,102.00 391.00,102.00 Z
           M 404.00,106.00
           C 404.00,106.00 403.00,106.00 403.00,106.00
             403.00,106.00 404.00,107.00 404.00,107.00
             404.00,107.00 404.00,106.00 404.00,106.00 Z
           M 403.00,107.00
           C 403.00,107.00 402.00,107.00 402.00,107.00
             402.00,107.00 403.00,108.00 403.00,108.00
             403.00,108.00 403.00,107.00 403.00,107.00 Z
           M 402.00,108.00
           C 402.00,108.00 401.00,108.00 401.00,108.00
             401.00,108.00 402.00,109.00 402.00,109.00
             402.00,109.00 402.00,108.00 402.00,108.00 Z
           M 401.00,109.00
           C 401.00,109.00 400.00,109.00 400.00,109.00
             400.00,109.00 401.00,110.00 401.00,110.00
             401.00,110.00 401.00,109.00 401.00,109.00 Z
           M 400.00,110.00
           C 394.91,112.41 393.10,115.10 389.00,118.72
             389.00,118.72 367.00,137.95 367.00,137.95
             362.05,142.41 357.96,146.79 360.00,154.00
             363.35,146.64 367.39,143.61 373.00,138.00
             379.53,131.47 395.37,116.46 400.00,110.00 Z
           M 326.00,113.00
           C 326.00,113.00 328.00,132.00 328.00,132.00
             328.00,132.00 336.00,131.00 336.00,131.00
             336.00,131.00 326.00,113.00 326.00,113.00 Z
           M 405.00,120.00
           C 404.65,124.42 409.08,136.62 411.00,141.00
             411.00,141.00 437.00,129.00 437.00,129.00
             437.00,129.00 405.00,120.00 405.00,120.00 Z
           M 398.00,122.00
           C 392.45,125.97 377.97,140.45 374.00,146.00
             374.00,146.00 405.00,142.00 405.00,142.00
             405.00,142.00 398.00,122.00 398.00,122.00 Z
           M 339.00,137.00
           C 339.00,137.00 331.00,138.00 331.00,138.00
             331.00,138.00 343.00,157.00 343.00,157.00
             343.00,157.00 339.00,137.00 339.00,137.00 Z
           M 212.00,152.00
           C 211.75,156.89 221.15,167.60 224.29,172.00
             224.29,172.00 260.42,222.00 260.42,222.00
             260.42,222.00 270.58,235.98 270.58,235.98
             272.22,238.14 273.89,240.97 277.04,239.83
             279.13,239.07 290.55,228.34 293.00,226.08
             293.00,226.08 321.00,200.98 321.00,200.98
             325.60,196.69 330.28,193.74 333.00,188.00
             333.00,188.00 309.00,181.02 309.00,181.02
             309.00,181.02 278.00,171.72 278.00,171.72
             278.00,171.72 212.00,152.00 212.00,152.00 Z
           M 496.00,152.00
           C 496.00,152.00 468.00,160.28 468.00,160.28
             468.00,160.28 404.00,179.42 404.00,179.42
             404.00,179.42 371.00,189.00 371.00,189.00
             373.74,194.66 382.11,200.98 387.00,205.28
             387.00,205.28 414.00,229.91 414.00,229.91
             416.75,232.46 426.15,242.29 429.68,240.83
             431.47,240.09 434.38,235.67 435.63,234.00
             435.63,234.00 448.37,217.00 448.37,217.00
             448.37,217.00 478.37,177.00 478.37,177.00
             483.07,170.73 492.71,158.39 496.00,152.00 Z
           M 204.00,153.00
           C 204.00,153.00 191.63,199.00 191.63,199.00
             191.63,199.00 180.13,244.00 180.13,244.00
             180.13,244.00 175.00,267.00 175.00,267.00
             175.00,267.00 191.00,263.42 191.00,263.42
             191.00,263.42 269.00,245.00 269.00,245.00
             269.00,245.00 250.42,218.00 250.42,218.00
             250.42,218.00 204.00,153.00 204.00,153.00 Z
           M 504.00,153.00
           C 504.00,153.00 461.63,209.00 461.63,209.00
             461.63,209.00 435.00,246.00 435.00,246.00
             435.00,246.00 457.00,250.40 457.00,250.40
             457.00,250.40 517.00,263.21 517.00,263.21
             517.00,263.21 546.00,269.00 546.00,269.00
             546.00,269.00 538.42,246.00 538.42,246.00
             538.42,246.00 527.42,216.00 527.42,216.00
             527.42,216.00 504.00,153.00 504.00,153.00 Z
           M 344.00,157.00
           C 344.00,157.00 343.00,157.00 343.00,157.00
             343.00,157.00 344.00,158.00 344.00,158.00
             344.00,158.00 344.00,157.00 344.00,157.00 Z
           M 195.00,161.00
           C 195.00,161.00 181.20,177.00 181.20,177.00
             181.20,177.00 157.58,207.00 157.58,207.00
             157.58,207.00 98.00,283.00 98.00,283.00
             98.00,283.00 168.00,269.00 168.00,269.00
             168.00,269.00 195.00,161.00 195.00,161.00 Z
           M 440.00,162.00
           C 440.00,162.00 439.00,162.00 439.00,162.00
             439.00,162.00 440.00,163.00 440.00,163.00
             440.00,163.00 440.00,162.00 440.00,162.00 Z
           M 436.00,163.00
           C 436.00,163.00 435.00,163.00 435.00,163.00
             435.00,163.00 436.00,164.00 436.00,164.00
             436.00,164.00 436.00,163.00 436.00,163.00 Z
           M 276.00,164.00
           C 276.00,164.00 275.00,164.00 275.00,164.00
             275.00,164.00 276.00,165.00 276.00,165.00
             276.00,165.00 276.00,164.00 276.00,164.00 Z
           M 430.00,165.00
           C 430.00,165.00 401.00,170.20 401.00,170.20
             401.00,170.20 359.00,179.00 359.00,179.00
             365.05,187.14 367.60,184.14 379.00,180.86
             379.00,180.86 414.00,170.34 414.00,170.34
             419.05,168.76 425.40,167.41 430.00,165.00 Z
           M 516.00,165.00
           C 516.00,165.00 515.00,165.00 515.00,165.00
             515.00,165.00 516.00,166.00 516.00,166.00
             516.00,166.00 516.00,165.00 516.00,165.00 Z
           M 517.00,166.00
           C 516.03,171.39 522.28,184.33 524.31,190.00
             524.31,190.00 545.05,247.00 545.05,247.00
             545.05,247.00 550.95,263.00 550.95,263.00
             551.97,265.79 552.68,269.09 555.27,270.86
             557.67,272.50 567.54,274.09 571.00,274.88
             571.00,274.88 609.00,283.00 609.00,283.00
             609.00,283.00 576.46,244.00 576.46,244.00
             576.46,244.00 545.12,203.00 545.12,203.00
             545.12,203.00 517.00,166.00 517.00,166.00 Z
           M 344.00,179.00
           C 344.00,179.00 304.00,170.35 304.00,170.35
             298.83,169.18 289.91,166.20 285.00,168.00
             285.00,168.00 326.00,179.98 326.00,179.98
             334.75,182.67 338.67,185.78 344.00,179.00 Z
           M 180.00,168.00
           C 180.00,168.00 179.00,168.00 179.00,168.00
             179.00,168.00 180.00,169.00 180.00,169.00
             180.00,169.00 180.00,168.00 180.00,168.00 Z
           M 527.00,168.00
           C 527.00,168.00 526.00,168.00 526.00,168.00
             526.00,168.00 527.00,169.00 527.00,169.00
             527.00,169.00 527.00,168.00 527.00,168.00 Z
           M 179.00,169.00
           C 179.00,169.00 137.00,202.75 137.00,202.75
             137.00,202.75 117.84,219.17 117.84,219.17
             117.84,219.17 110.67,238.00 110.67,238.00
             110.67,238.00 101.00,268.00 101.00,268.00
             101.00,268.00 118.79,247.00 118.79,247.00
             118.79,247.00 151.00,206.00 151.00,206.00
             151.00,206.00 168.40,184.00 168.40,184.00
             168.40,184.00 179.00,169.00 179.00,169.00 Z
           M 528.00,169.00
           C 528.00,169.00 527.00,169.00 527.00,169.00
             527.00,169.00 528.00,170.00 528.00,170.00
             528.00,170.00 528.00,169.00 528.00,169.00 Z
           M 529.00,170.00
           C 529.00,170.00 528.00,170.00 528.00,170.00
             528.00,170.00 529.00,171.00 529.00,171.00
             529.00,171.00 529.00,170.00 529.00,170.00 Z
           M 530.00,171.00
           C 529.91,175.93 538.39,184.91 541.58,189.00
             541.58,189.00 566.79,222.00 566.79,222.00
             570.63,226.90 574.44,232.92 579.00,237.00
             579.00,237.00 588.00,220.00 588.00,220.00
             588.00,220.00 567.00,202.42 567.00,202.42
             567.00,202.42 530.00,171.00 530.00,171.00 Z
           M 345.00,172.00
           C 345.00,172.00 344.00,172.00 344.00,172.00
             344.00,172.00 345.00,173.00 345.00,173.00
             345.00,173.00 345.00,172.00 345.00,172.00 Z
           M 353.00,182.00
           C 346.18,184.32 337.67,193.73 332.00,198.72
             332.00,198.72 303.00,224.83 303.00,224.83
             297.12,230.13 287.35,237.95 283.00,244.00
             283.00,244.00 420.00,244.00 420.00,244.00
             420.00,244.00 400.00,224.83 400.00,224.83
             400.00,224.83 353.00,182.00 353.00,182.00 Z
           M 592.00,227.00
           C 589.97,229.55 584.02,239.03 584.23,242.00
             584.43,244.86 588.28,248.84 590.13,251.00
             594.73,256.36 602.01,265.89 607.00,270.00
             607.00,270.00 592.00,227.00 592.00,227.00 Z
           M 277.04,249.90
           C 271.43,252.64 257.93,269.33 252.83,275.00
             252.83,275.00 199.72,334.00 199.72,334.00
             199.72,334.00 182.58,353.00 182.58,353.00
             180.56,355.33 176.55,359.11 175.90,362.00
             175.32,364.56 178.11,373.94 178.87,377.00
             178.87,377.00 187.63,412.00 187.63,412.00
             187.63,412.00 197.63,452.00 197.63,452.00
             198.60,455.88 201.55,469.20 203.14,471.83
             205.17,475.21 218.16,485.39 222.00,488.59
             222.00,488.59 261.00,520.80 261.00,520.80
             270.04,528.11 272.06,532.98 284.00,533.00
             284.00,533.00 313.00,533.00 313.00,533.00
             313.00,533.00 372.00,533.00 372.00,533.00
             372.00,533.00 420.00,533.00 420.00,533.00
             430.32,532.98 429.56,530.90 437.00,524.17
             437.00,524.17 456.00,506.72 456.00,506.72
             456.00,506.72 480.00,484.04 480.00,484.04
             483.45,480.74 488.75,476.98 491.07,473.00
             491.07,473.00 498.42,450.00 498.42,450.00
             498.42,450.00 509.86,412.00 509.86,412.00
             509.86,412.00 517.02,388.00 517.02,388.00
             517.99,384.87 520.09,379.15 519.61,376.00
             518.99,371.89 511.38,362.67 508.63,359.00
             508.63,359.00 481.87,323.00 481.87,323.00
             481.87,323.00 441.71,269.00 441.71,269.00
             439.07,265.31 430.13,252.03 426.70,250.57
             425.04,249.86 421.85,250.00 420.00,249.90
             420.00,249.90 322.00,249.90 322.00,249.90
             322.00,249.90 277.04,249.90 277.04,249.90 Z
           M 265.00,252.00
           C 265.00,252.00 239.00,258.12 239.00,258.12
             239.00,258.12 195.00,268.63 195.00,268.63
             195.00,268.63 180.00,272.13 180.00,272.13
             180.00,272.13 173.99,274.72 173.99,274.72
             173.99,274.72 173.00,282.00 173.00,282.00
             173.00,282.00 173.00,286.00 173.00,286.00
             173.00,286.00 174.00,301.00 174.00,301.00
             174.00,301.00 174.00,335.00 174.00,335.00
             174.00,335.00 175.00,352.00 175.00,352.00
             175.00,352.00 190.17,336.00 190.17,336.00
             190.17,336.00 217.17,306.00 217.17,306.00
             217.17,306.00 265.00,252.00 265.00,252.00 Z
           M 438.00,252.00
           C 438.00,252.00 437.00,252.00 437.00,252.00
             437.00,252.00 438.00,253.00 438.00,253.00
             438.00,253.00 438.00,252.00 438.00,252.00 Z
           M 548.00,276.00
           C 548.00,276.00 480.00,261.35 480.00,261.35
             480.00,261.35 438.00,253.00 438.00,253.00
             438.00,253.00 449.63,270.00 449.63,270.00
             449.63,270.00 471.13,299.00 471.13,299.00
             471.13,299.00 504.63,344.00 504.63,344.00
             504.63,344.00 523.00,368.00 523.00,368.00
             523.00,368.00 548.00,276.00 548.00,276.00 Z
           M 445.00,513.00
           C 439.29,515.10 437.72,511.16 434.13,507.00
             434.13,507.00 413.58,483.00 413.58,483.00
             413.58,483.00 339.87,397.00 339.87,397.00
             339.87,397.00 321.00,375.00 321.00,375.00
             319.19,372.90 314.16,367.71 314.19,365.00
             314.23,361.71 322.41,354.67 324.83,352.00
             324.83,352.00 343.96,332.00 343.96,332.00
             343.96,332.00 360.00,315.00 360.00,315.00
             360.00,315.00 403.00,270.00 403.00,270.00
             405.13,267.87 413.85,258.24 416.12,257.91
             418.04,257.63 418.84,258.89 420.00,260.00
             420.00,260.00 374.96,307.00 374.96,307.00
             374.96,307.00 361.04,321.00 361.04,321.00
             361.04,321.00 347.00,336.00 347.00,336.00
             347.00,336.00 328.00,356.00 328.00,356.00
             326.03,357.98 321.15,362.20 320.96,365.00
             320.75,367.99 326.44,373.67 328.42,376.00
             328.42,376.00 352.42,404.00 352.42,404.00
             352.42,404.00 413.27,475.00 413.27,475.00
             413.27,475.00 445.00,513.00 445.00,513.00 Z
           M 284.00,260.00
           C 284.00,260.00 289.00,260.00 289.00,260.00
             289.00,260.00 289.00,417.00 289.00,417.00
             289.00,417.00 290.00,432.00 290.00,432.00
             290.00,432.00 290.00,527.00 290.00,527.00
             290.00,527.00 286.00,527.00 286.00,527.00
             286.00,527.00 286.00,495.00 286.00,495.00
             286.00,495.00 285.00,478.00 285.00,478.00
             285.00,478.00 285.00,298.00 285.00,298.00
             285.00,298.00 284.00,283.00 284.00,283.00
             284.00,283.00 284.00,260.00 284.00,260.00 Z
           M 292.00,260.00
           C 292.00,260.00 297.00,260.00 297.00,260.00
             297.00,260.00 297.00,527.00 297.00,527.00
             297.00,527.00 293.00,527.00 293.00,527.00
             293.00,527.00 293.00,346.00 293.00,346.00
             293.00,346.00 292.00,331.00 292.00,331.00
             292.00,331.00 292.00,260.00 292.00,260.00 Z
           M 299.00,260.00
           C 299.00,260.00 304.00,260.00 304.00,260.00
             304.00,260.00 304.00,527.00 304.00,527.00
             304.00,527.00 300.00,527.00 300.00,527.00
             300.00,527.00 300.00,438.00 300.00,438.00
             300.00,438.00 299.00,423.00 299.00,423.00
             299.00,423.00 299.00,260.00 299.00,260.00 Z
           M 307.00,260.00
           C 307.00,260.00 312.00,260.00 312.00,260.00
             312.00,260.00 311.00,281.00 311.00,281.00
             311.00,281.00 311.00,526.00 311.00,526.00
             311.00,526.00 307.00,526.00 307.00,526.00
             307.00,526.00 307.00,260.00 307.00,260.00 Z
           M 421.00,261.00
           C 424.79,265.34 421.50,267.26 418.28,271.00
             418.28,271.00 403.28,287.00 403.28,287.00
             403.28,287.00 376.09,316.00 376.09,316.00
             376.09,316.00 350.00,344.00 350.00,344.00
             350.00,344.00 336.01,359.00 336.01,359.00
             334.28,360.77 331.36,363.30 331.53,366.00
             331.71,368.74 337.49,374.73 339.42,377.00
             339.42,377.00 362.73,404.00 362.73,404.00
             362.73,404.00 421.42,472.00 421.42,472.00
             421.42,472.00 450.00,506.00 450.00,506.00
             444.19,508.13 442.63,504.19 439.00,500.00
             439.00,500.00 420.00,478.00 420.00,478.00
             420.00,478.00 347.42,394.00 347.42,394.00
             347.42,394.00 330.15,374.00 330.15,374.00
             328.33,371.91 324.52,367.96 324.91,365.00
             325.27,362.18 329.99,358.03 332.00,356.00
             332.00,356.00 349.91,337.00 349.91,337.00
             349.91,337.00 392.91,291.00 392.91,291.00
             392.91,291.00 421.00,261.00 421.00,261.00 Z
           M 426.00,266.00
           C 429.39,269.87 427.35,271.40 424.40,275.00
             424.40,275.00 408.91,292.00 408.91,292.00
             408.91,292.00 363.83,341.00 363.83,341.00
             363.83,341.00 341.00,366.00 341.00,366.00
             346.98,370.49 365.37,392.89 371.42,400.00
             371.42,400.00 425.42,463.00 425.42,463.00
             425.42,463.00 446.13,487.00 446.13,487.00
             449.85,491.32 454.37,495.44 456.00,501.00
             456.00,501.00 452.00,502.00 452.00,502.00
             452.00,502.00 422.27,467.00 422.27,467.00
             422.27,467.00 365.58,401.00 365.58,401.00
             365.58,401.00 344.13,376.00 344.13,376.00
             342.02,373.55 336.66,368.20 336.82,365.00
             336.98,361.96 340.99,358.10 343.01,356.00
             343.01,356.00 358.83,339.00 358.83,339.00
             358.83,339.00 403.91,290.00 403.91,290.00
             403.91,290.00 426.00,266.00 426.00,266.00 Z
           M 547.00,269.00
           C 547.00,269.00 546.00,269.00 546.00,269.00
             546.00,269.00 547.00,270.00 547.00,270.00
             547.00,270.00 547.00,269.00 547.00,269.00 Z
           M 100.00,270.00
           C 100.00,270.00 99.00,270.00 99.00,270.00
             99.00,270.00 100.00,271.00 100.00,271.00
             100.00,271.00 100.00,270.00 100.00,270.00 Z
           M 608.00,270.00
           C 608.00,270.00 607.00,270.00 607.00,270.00
             607.00,270.00 608.00,271.00 608.00,271.00
             608.00,271.00 608.00,270.00 608.00,270.00 Z
           M 430.00,271.00
           C 430.00,271.00 434.00,273.00 434.00,273.00
             431.12,279.09 421.13,288.50 416.28,294.00
             416.28,294.00 373.72,341.00 373.72,341.00
             373.72,341.00 359.03,357.00 359.03,357.00
             357.29,358.86 353.81,362.34 353.67,365.00
             353.52,367.95 357.70,371.82 359.58,374.00
             359.58,374.00 379.58,397.00 379.58,397.00
             379.58,397.00 437.15,463.00 437.15,463.00
             437.15,463.00 453.73,482.00 453.73,482.00
             457.26,486.12 460.45,488.73 462.00,494.00
             462.00,494.00 458.00,495.00 458.00,495.00
             458.00,495.00 431.28,464.00 431.28,464.00
             431.28,464.00 373.85,398.00 373.85,398.00
             373.85,398.00 352.87,374.00 352.87,374.00
             350.75,371.53 346.50,367.55 347.23,364.00
             347.80,361.26 352.06,357.04 354.00,355.00
             354.00,355.00 368.58,339.00 368.58,339.00
             368.58,339.00 430.00,271.00 430.00,271.00 Z
           M 167.04,275.00
           C 167.04,275.00 98.00,289.00 98.00,289.00
             101.21,295.79 112.12,303.74 118.00,309.07
             118.00,309.07 169.00,354.00 169.00,354.00
             169.00,354.00 168.00,334.00 168.00,334.00
             168.00,334.00 168.00,300.00 168.00,300.00
             168.00,300.00 167.04,288.00 167.04,288.00
             167.04,288.00 167.04,275.00 167.04,275.00 Z
           M 613.00,290.00
           C 613.00,290.00 555.00,278.00 555.00,278.00
             555.00,278.00 554.00,299.00 554.00,299.00
             554.00,299.00 554.00,354.00 554.00,354.00
             554.00,354.00 553.00,370.00 553.00,370.00
             553.00,370.00 553.00,400.00 553.00,400.00
             553.00,400.00 553.00,426.00 553.00,426.00
             552.99,432.56 550.75,442.32 553.00,448.00
             553.00,448.00 568.80,406.00 568.80,406.00
             568.80,406.00 597.81,331.00 597.81,331.00
             597.81,331.00 613.00,290.00 613.00,290.00 Z
           M 98.00,299.00
           C 98.00,299.00 97.00,299.00 97.00,299.00
             97.00,299.00 98.00,300.00 98.00,300.00
             98.00,300.00 98.00,299.00 98.00,299.00 Z
           M 99.00,300.00
           C 98.06,305.18 105.58,322.08 107.66,328.00
             107.66,328.00 133.00,398.00 133.00,398.00
             138.55,393.99 147.19,383.51 152.17,378.00
             157.18,372.46 163.81,366.79 167.00,360.00
             167.00,360.00 149.00,344.17 149.00,344.17
             149.00,344.17 99.00,300.00 99.00,300.00 Z
           M 548.00,301.00
           C 548.00,301.00 539.12,331.00 539.12,331.00
             539.12,331.00 527.12,375.00 527.12,375.00
             527.12,375.00 519.30,404.00 519.30,404.00
             519.30,404.00 527.00,420.00 527.00,420.00
             527.00,420.00 546.04,452.00 546.04,452.00
             546.04,452.00 546.04,439.00 546.04,439.00
             546.04,439.00 547.00,427.00 547.00,427.00
             547.00,427.00 547.00,372.00 547.00,372.00
             547.00,372.00 548.00,355.00 548.00,355.00
             548.00,355.00 548.00,301.00 548.00,301.00 Z
           M 96.00,312.00
           C 94.17,316.62 96.04,334.26 96.72,340.00
             96.72,340.00 98.38,360.00 98.38,360.00
             98.38,360.00 109.31,391.00 109.31,391.00
             111.46,397.02 115.66,410.38 119.00,415.00
             119.00,415.00 127.88,403.00 127.88,403.00
             127.88,403.00 125.69,395.00 125.69,395.00
             125.69,395.00 118.81,376.00 118.81,376.00
             118.81,376.00 103.31,333.00 103.31,333.00
             103.31,333.00 96.00,312.00 96.00,312.00 Z
           M 612.00,312.00
           C 612.00,312.00 596.40,351.00 596.40,351.00
             596.40,351.00 563.05,437.00 563.05,437.00
             558.72,448.58 547.48,469.38 555.00,481.00
             555.00,481.00 570.58,443.00 570.58,443.00
             570.58,443.00 593.01,389.00 593.01,389.00
             593.01,389.00 606.51,356.00 606.51,356.00
             606.51,356.00 612.00,312.00 612.00,312.00 Z
           M 169.00,369.00
           C 169.00,369.00 145.28,394.00 145.28,394.00
             145.28,394.00 136.78,405.00 136.78,405.00
             136.78,405.00 138.95,414.00 138.95,414.00
             138.95,414.00 145.05,431.00 145.05,431.00
             145.05,431.00 162.58,479.00 162.58,479.00
             162.58,479.00 172.00,503.00 172.00,503.00
             172.00,503.00 171.00,487.00 171.00,487.00
             171.00,487.00 170.00,402.00 170.00,402.00
             170.00,402.00 169.00,387.00 169.00,387.00
             169.00,387.00 169.00,369.00 169.00,369.00 Z
           M 176.00,388.00
           C 174.42,392.10 175.95,396.62 176.00,401.00
             176.00,401.00 176.00,418.00 176.00,418.00
             176.00,418.00 177.00,476.00 177.00,476.00
             177.00,482.26 177.08,503.15 179.00,508.00
             179.00,508.00 191.26,484.00 191.26,484.00
             191.26,484.00 196.06,474.00 196.06,474.00
             196.06,474.00 190.37,448.00 190.37,448.00
             190.37,448.00 176.00,388.00 176.00,388.00 Z
           M 132.00,411.00
           C 129.77,412.06 128.97,412.39 127.09,414.14
             120.47,420.29 120.83,422.47 124.14,430.00
             124.14,430.00 128.42,440.00 128.42,440.00
             138.08,462.65 137.81,465.34 152.58,486.00
             155.82,490.53 158.84,495.27 163.00,499.00
             163.00,499.00 132.00,411.00 132.00,411.00 Z
           M 516.00,414.00
           C 513.49,418.23 509.24,434.32 507.58,440.00
             504.70,449.82 497.11,470.97 497.00,480.00
             497.00,480.00 497.00,507.00 497.00,507.00
             497.00,507.00 536.00,472.72 536.00,472.72
             536.00,472.72 545.00,465.00 545.00,465.00
             545.00,465.00 528.28,434.00 528.28,434.00
             528.28,434.00 516.00,414.00 516.00,414.00 Z
           M 546.00,472.00
           C 546.00,472.00 512.00,501.92 512.00,501.92
             512.00,501.92 497.02,516.09 497.02,516.09
             497.02,516.09 496.00,532.00 496.00,532.00
             496.00,532.00 519.71,527.52 519.71,527.52
             519.71,527.52 527.27,520.00 527.27,520.00
             527.27,520.00 541.59,503.00 541.59,503.00
             541.59,503.00 548.32,493.00 548.32,493.00
             548.32,493.00 546.00,472.00 546.00,472.00 Z
           M 202.00,479.00
           C 196.65,484.01 193.16,493.37 189.74,500.00
             186.22,506.82 181.44,513.35 180.00,521.00
             189.95,524.32 208.60,532.88 218.00,533.00
             218.00,533.00 243.00,533.00 243.00,533.00
             248.53,533.00 261.45,533.80 266.00,532.00
             266.00,532.00 237.00,508.25 237.00,508.25
             237.00,508.25 202.00,479.00 202.00,479.00 Z
           M 491.00,483.00
           C 491.00,483.00 464.00,506.96 464.00,506.96
             464.00,506.96 437.00,533.00 437.00,533.00
             437.00,533.00 490.04,532.00 490.04,532.00
             490.04,532.00 490.04,516.00 490.04,516.00
             490.04,516.00 491.00,504.00 491.00,504.00
             491.00,504.00 491.00,483.00 491.00,483.00 Z
           M 188.00,530.00
           C 189.19,534.51 196.40,540.24 199.72,544.00
             210.62,556.37 215.08,558.09 228.00,567.29
             228.00,567.29 251.00,583.00 251.00,583.00
             251.00,583.00 263.00,569.00 263.00,569.00
             263.00,569.00 227.00,547.99 227.00,547.99
             227.00,547.99 212.00,539.27 212.00,539.27
             212.00,539.27 188.00,530.00 188.00,530.00 Z
           M 514.00,535.00
           C 514.00,535.00 494.00,538.66 494.00,538.66
             494.00,538.66 474.00,549.58 474.00,549.58
             474.00,549.58 438.00,570.00 438.00,570.00
             438.00,570.00 438.00,572.00 438.00,572.00
             441.32,573.91 450.22,580.83 453.00,581.03
             456.40,581.27 466.65,573.23 470.00,571.00
             470.00,571.00 502.83,548.68 502.83,548.68
             506.38,545.41 511.39,539.12 514.00,535.00 Z
           M 481.00,538.00
           C 481.00,538.00 442.00,538.00 442.00,538.00
             442.00,538.00 427.00,539.00 427.00,539.00
             427.00,539.00 405.00,539.00 405.00,539.00
             405.00,539.00 393.00,540.00 393.00,540.00
             393.00,540.00 419.00,558.14 419.00,558.14
             421.50,559.92 428.39,565.32 431.00,565.76
             434.40,566.33 441.86,561.22 445.00,559.42
             452.59,555.07 476.11,542.90 481.00,538.00 Z
           M 295.00,539.00
           C 295.00,539.00 247.00,539.00 247.00,539.00
             247.00,539.00 225.00,540.00 225.00,540.00
             225.00,540.00 257.00,558.85 257.00,558.85
             259.85,560.49 265.82,564.82 269.00,564.18
             271.89,563.60 275.89,559.10 278.00,557.00
             283.28,551.73 290.81,544.85 295.00,539.00 Z
           M 378.00,539.00
           C 378.00,539.00 309.00,539.00 309.00,539.00
             309.00,539.00 327.80,586.00 327.80,586.00
             329.00,588.98 333.76,601.58 335.70,603.05
             338.36,604.98 344.79,603.27 348.00,603.05
             348.00,603.05 364.00,604.00 364.00,604.00
             364.00,604.00 378.00,539.00 378.00,539.00 Z
           M 303.00,541.00
           C 303.00,541.00 274.00,568.00 274.00,568.00
             274.00,568.00 294.00,580.60 294.00,580.60
             294.00,580.60 326.00,599.00 326.00,599.00
             326.00,599.00 319.40,581.00 319.40,581.00
             319.40,581.00 303.00,541.00 303.00,541.00 Z
           M 385.00,541.00
           C 385.00,541.00 378.79,564.00 378.79,564.00
             378.79,564.00 371.00,601.00 371.00,601.00
             371.00,601.00 425.00,571.00 425.00,571.00
             425.00,571.00 425.00,569.00 425.00,569.00
             425.00,569.00 385.00,541.00 385.00,541.00 Z
           M 323.00,604.00
           C 323.00,604.00 285.00,582.01 285.00,582.01
             282.31,580.43 272.45,574.19 270.00,574.29
             265.63,574.48 258.76,583.27 257.00,587.00
             257.00,587.00 287.00,600.26 287.00,600.26
             287.00,600.26 303.00,606.75 303.00,606.75
             303.00,606.75 311.00,606.09 311.00,606.09
             311.00,606.09 323.00,604.00 323.00,604.00 Z
           M 447.00,585.00
           C 447.00,585.00 431.00,575.19 431.00,575.19
             431.00,575.19 415.00,583.15 415.00,583.15
             415.00,583.15 376.00,606.00 376.00,606.00
             376.00,606.00 400.00,607.57 400.00,607.57
             400.00,607.57 429.00,594.25 429.00,594.25
             429.00,594.25 447.00,585.00 447.00,585.00 Z" />
</svg>
