<?xml version="1.0" encoding="UTF-8" standalone="no"?>
<!-- Created with Inkscape (http://www.inkscape.org/) -->

<svg
   width="512mm"
   height="512mm"
   viewBox="0 0 511.99999 511.99999"
   version="1.1"
   id="svg1"
   xml:space="preserve"
   sodipodi:docname="kos_logo.svg"
   inkscape:version="1.4 (e7c3feb1, 2024-10-09)"
   inkscape:export-filename="kos_logo.png"
   inkscape:export-xdpi="25.4"
   inkscape:export-ydpi="25.4"
   xmlns:inkscape="http://www.inkscape.org/namespaces/inkscape"
   xmlns:sodipodi="http://sodipodi.sourceforge.net/DTD/sodipodi-0.dtd"
   xmlns="http://www.w3.org/2000/svg"
   xmlns:svg="http://www.w3.org/2000/svg"><sodipodi:namedview
     id="namedview1"
     pagecolor="#ffffff"
     bordercolor="#000000"
     borderopacity="0.25"
     inkscape:showpageshadow="2"
     inkscape:pageopacity="0.0"
     inkscape:pagecheckerboard="0"
     inkscape:deskcolor="#d1d1d1"
     inkscape:document-units="mm"
     inkscape:zoom="0.22627417"
     inkscape:cx="598.83106"
     inkscape:cy="187.82524"
     inkscape:window-width="1200"
     inkscape:window-height="950"
     inkscape:window-x="204"
     inkscape:window-y="25"
     inkscape:window-maximized="0"
     inkscape:current-layer="layer10" /><defs
     id="defs1" /><g
     inkscape:groupmode="layer"
     id="layer13"
     inkscape:label="BG"
     sodipodi:insensitive="true" /><g
     inkscape:groupmode="layer"
     id="layer5"
     inkscape:label="Left"
     style="display:inline;fill:#ffcc00"
     transform="matrix(0.95210411,0,0,0.95210411,-24.885327,325.57235)"><path
       style="fill:#ecbd00;fill-opacity:1;stroke-width:1.15934"
       d="m 198.66302,-221.93715 c -17.68948,-0.78501 -35.61407,0.63344 -52.1774,7.0442 -21.29091,6.71567 -40.66659,18.90584 -56.355119,34.76065 -14.654234,13.24249 -25.538342,30.2972 -31.234219,49.22162 -5.852258,15.26367 -8.328359,31.547715 -10.152655,47.734489 -2.313363,18.491891 0.0298,37.018353 3.6873,55.172672 3.117264,18.3827846 9.936911,35.898461 14.613847,53.925271 7.911439,22.391268 15.564734,46.381882 28.439133,66.940696 14.460823,24.159572 28.612133,49.070932 48.935733,69.014062 12.08694,12.34554 25.44063,20.79148 39.24648,28.35704 5.73961,1.8467 10.06122,2.95875 14.99018,3.63718 -0.004,-140.318299 0.007,-275.480483 0.002,-415.79883 z"
       id="path1"
       sodipodi:nodetypes="ccccccccccccc" /></g><g
     inkscape:groupmode="layer"
     id="layer8"
     inkscape:label="Bot"
     style="fill:#c56010;fill-opacity:1"
     transform="matrix(4.1718986,0,0,4.1718986,-178.86246,-302.19742)"><path
       style="fill:#cc9900;fill-opacity:1;stroke-width:0.264583"
       d="m 82.242863,194.72187 c -0.0013,-16.12987 0.0014,-31.06674 1.34e-4,-47.19661 l 16.604819,7.99587 c 15.513574,7.47038 31.027144,14.94077 46.540714,22.41116 -2.24047,3.1012 -4.5414,6.12974 -7.18706,8.90539 -2.17527,2.51611 -5.07916,4.5525 -7.9144,6.45054 -2.52343,1.45219 -5.56815,2.06056 -8.43338,1.4454 -4.06774,-0.77942 -7.62014,-3.10967 -11.5974,-4.20348 -2.6498,-1.16079 -5.62826,-1.82113 -8.49128,-1.10507 -2.514502,0.66715 -5.683485,2.12239 -7.203603,2.85291 -1.698462,0.84808 -3.497893,1.72646 -5.827097,2.43548 -2.075812,0.40117 -4.282961,0.2203 -6.491447,0.008 z"
       id="path3"
       sodipodi:nodetypes="ccscccccccccc" /></g><g
     inkscape:groupmode="layer"
     id="layer9"
     inkscape:label="Right"
     style="fill:#f9da61;fill-opacity:1"
     transform="matrix(4.1718986,0,0,4.1718986,-178.86246,-302.19742)"><path
       style="fill:#ffdf00;fill-opacity:1;stroke-width:0.264583"
       d="m 146.02187,103.4539 c -21.19147,14.63752 -42.58603,29.43409 -63.777502,44.07161 21.059182,10.12031 42.085292,20.29024 63.144472,30.41055 1.46422,-2.28123 3.06964,-4.52284 4.22321,-6.97952 2.69167,-4.8978 4.86108,-10.0123 6.67657,-15.28197 1.8395,-5.41132 3.12281,-11.19179 3.74188,-16.89137 0.32509,-6.10504 0.43538,-12.89491 -1.20795,-18.7851 -0.88341,-3.39936 -2.55456,-6.25831 -4.48066,-9.21583 -1.57423,-2.43285 -3.7578,-4.47744 -6.17369,-6.02767 -0.74078,-0.46449 -1.38564,-0.88635 -2.14633,-1.3007 z"
       id="path4"
       sodipodi:nodetypes="cccccccccc" /></g><g
     inkscape:groupmode="layer"
     id="layer11"
     inkscape:label="Leaf"
     style="fill:#ec770b;fill-opacity:1"
     transform="matrix(4.1718986,0,0,4.1718986,-178.86246,-302.19742)"><path
       style="fill:#b76e79;fill-opacity:1;stroke-width:0.264583"
       d="m 105.16627,95.800504 c 0.31158,-0.198761 -0.24043,-3.966 -0.48373,-6.316065 -0.46498,-3.311883 -1.36612,-5.97044 -2.29095,-7.567669 -0.85657,-1.981215 -2.442077,-3.75423 -4.625954,-5.631923 -1.953701,-1.494068 -5.98163,-3.066598 -8.565931,-3.478063 -1.837128,-0.160346 -5.520919,-0.08897 -8.313163,0.245834 -0.537973,2.468763 -1.317411,6.616985 -1.098471,9.125384 0.23299,3.079319 0.990039,4.839779 2.28884,7.739433 1.0852,2.017538 2.739837,4.422915 4.652767,5.749828 1.878998,1.470424 4.133607,2.591869 6.386516,3.369883 2.451345,0.563717 5.358557,0.582237 7.903296,0.646467 1.08442,-0.0237 2.27567,-0.310657 3.24843,-0.431527 0.0156,-0.342987 0.86639,-3.092151 0.88189,-3.435046 z"
       id="path6"
       sodipodi:nodetypes="cccccccccccccc" /></g><g
     inkscape:groupmode="layer"
     id="layer10"
     inkscape:label="Stem"
     style="display:inline;fill:#806c00;fill-opacity:1"
     transform="matrix(4.1718986,0,0,4.1718986,-178.86246,-302.19742)"><path
       style="fill:#806c00;fill-opacity:1;stroke-width:0.264583"
       d="m 116.55624,80.541671 c 0.343,1.044579 0.49891,1.668207 0.84191,2.712786 -0.67672,0.16054 -1.59726,0.612442 -1.83972,0.780694 -0.58145,0.313512 -1.4443,1.039225 -1.94884,1.417596 -0.77667,0.701172 -1.5358,1.326922 -2.17938,2.158481 -0.79392,0.901895 -1.44898,1.662113 -2.12366,2.659053 -0.70609,0.956011 -1.5039,2.162746 -2.06229,3.217044 -0.75908,1.478445 -1.24841,2.823125 -1.83424,4.379568 -0.50547,1.455663 -0.57805,3.007147 -0.82746,4.517377 l -2.75955,-0.0468 c 0.18195,-1.48717 0.36885,-3.047649 0.69496,-4.499439 0.5014,-1.555115 1.00021,-3.045963 1.69005,-4.531435 0.38305,-0.957582 0.84331,-1.876921 1.37052,-2.763102 0.58165,-0.900196 1.20022,-1.797192 1.8546,-2.647241 0.57278,-0.736691 1.22993,-1.558633 1.86524,-2.244798 1.13341,-1.189006 2.42256,-2.241154 3.77544,-3.291349 0.57452,-0.413853 1.29684,-0.876841 1.80782,-1.131449 z"
       id="path5"
       sodipodi:nodetypes="cccccccccccccccccc" /></g><g
     inkscape:groupmode="layer"
     id="layer6"
     inkscape:label="Top"
     style="display:inline;fill:#f4b328;fill-opacity:1"
     transform="matrix(4.1718986,0,0,4.1718986,-178.86246,-302.19742)"><path
       style="fill:#ffcc00;fill-opacity:1;stroke-width:0.264583"
       d="m 82.242207,100.13323 6.68e-4,47.39378 c 21.154885,-14.60996 42.626465,-29.4626 63.781355,-44.07256 -2.24367,-1.74775 -5.14558,-2.85221 -7.84774,-3.702032 -2.97718,-1.12698 -6.86944,-1.851394 -10.38907,-2.194656 -3.22055,-0.02078 -6.4376,0.390311 -9.62374,0.824167 -4.8091,0.695029 -9.32083,2.587531 -14.00003,3.800421 -1.30102,0.16859 -2.57125,-0.21382 -3.92838,-0.47418 -3.035034,-0.46886 -5.983644,-0.91341 -9.003637,-1.40605 -2.803794,-0.321449 -5.79048,-0.409974 -8.986326,-0.476263 0.0014,0.103141 -0.0036,0.204223 -0.0031,0.307373 z"
       id="path2"
       sodipodi:nodetypes="ccccccccccc" /></g></svg>
